<mxfile host="app.diagrams.net" agent="Mozilla/5.0 (Windows NT 10.0; Win64; x64) AppleWebKit/537.36 (KHTML, like Gecko) Chrome/135.0.0.0 Safari/537.36" version="26.2.14">
  <diagram name="Page-1" id="X8ADTHubLzP3hr-LpWpE">
    <mxGraphModel dx="719" dy="388" grid="1" gridSize="5" guides="1" tooltips="1" connect="1" arrows="1" fold="1" page="1" pageScale="1" pageWidth="827" pageHeight="1169" math="0" shadow="0">
      <root>
        <mxCell id="0" />
        <mxCell id="1" parent="0" />
        <mxCell id="Pbngu6moprH94buiZck2-2" value="" style="rounded=0;whiteSpace=wrap;html=1;" vertex="1" parent="1">
          <mxGeometry x="300" y="160" width="180" height="320" as="geometry" />
        </mxCell>
        <mxCell id="Pbngu6moprH94buiZck2-3" value="" style="endArrow=none;html=1;rounded=0;entryX=1.006;entryY=0.432;entryDx=0;entryDy=0;entryPerimeter=0;exitX=0;exitY=0.434;exitDx=0;exitDy=0;exitPerimeter=0;" edge="1" parent="1">
          <mxGeometry width="50" height="50" relative="1" as="geometry">
            <mxPoint x="299.46000000000004" y="280.64" as="sourcePoint" />
            <mxPoint x="480.53999999999996" y="280" as="targetPoint" />
          </mxGeometry>
        </mxCell>
        <mxCell id="Pbngu6moprH94buiZck2-4" value="" style="endArrow=none;html=1;rounded=0;entryX=1.006;entryY=0.432;entryDx=0;entryDy=0;entryPerimeter=0;exitX=0;exitY=0.434;exitDx=0;exitDy=0;exitPerimeter=0;" edge="1" parent="1">
          <mxGeometry width="50" height="50" relative="1" as="geometry">
            <mxPoint x="298.92" y="330.64" as="sourcePoint" />
            <mxPoint x="479.99999999999994" y="330" as="targetPoint" />
          </mxGeometry>
        </mxCell>
        <mxCell id="Pbngu6moprH94buiZck2-5" value="&lt;font size=&quot;1&quot;&gt;Inventory&lt;/font&gt;" style="rounded=1;whiteSpace=wrap;html=1;" vertex="1" parent="1">
          <mxGeometry x="305" y="305" width="50" height="20" as="geometry" />
        </mxCell>
        <mxCell id="Pbngu6moprH94buiZck2-6" value="&lt;font size=&quot;1&quot;&gt;Guess&lt;/font&gt;" style="rounded=1;whiteSpace=wrap;html=1;" vertex="1" parent="1">
          <mxGeometry x="364" y="305" width="41" height="20" as="geometry" />
        </mxCell>
        <mxCell id="Pbngu6moprH94buiZck2-7" value="&lt;font style=&quot;font-size: 8px;&quot;&gt;Crime scene&lt;/font&gt;" style="text;html=1;align=center;verticalAlign=middle;whiteSpace=wrap;rounded=0;" vertex="1" parent="1">
          <mxGeometry x="360" y="275" width="60" height="30" as="geometry" />
        </mxCell>
      </root>
    </mxGraphModel>
  </diagram>
</mxfile>
